M48
; DRILL file KiCad 10.0.6 date 2026-10-07T21:20:45
; FORMAT={-:-/ absolute / metric / decimal}
; #@! TF.CreationDate,2026-10-07T21:20:45+08:00
; #@! TF.GenerationSoftware,Kicad,Pcbnew,10.0.6
; #@! TF.FileFunction,Plated,1,4,PTH
FMAT,2
METRIC
; #@! TA.AperFunction,Plated,PTH,ViaDrill
T1C0.300
; #@! TA.AperFunction,Plated,PTH,ComponentDrill
T2C1.000
%
G90
G05
T1
X57.888Y-94.112
X58.027Y-101.881
X58.11Y-96.575
X58.299Y-88.933
X58.873Y-69.193
X59.624Y-92.753
X61.007Y-83.082
X61.75Y-71.425
X63.7Y-118.35
X64.112Y-105.6
X64.323Y-90.0
X67.797Y-107.981
X69.0Y-115.65
X71.202Y-98.874
X73.075Y-66.669
X73.075Y-97.493
X74.215Y-99.101
X74.652Y-93.822
X76.987Y-95.075
X77.1Y-78.15
X77.897Y-113.763
X77.915Y-122.26
X78.509Y-60.175
X78.588Y-67.387
X78.616Y-58.044
X78.758Y-75.56
X79.227Y-73.675
X80.023Y-122.857
X80.843Y-92.838
X80.924Y-73.178
X81.42Y-119.969
X81.609Y-86.73
X81.65Y-116.85
X82.734Y-121.951
X83.2Y-120.0
X83.633Y-98.302
X83.752Y-63.202
X84.097Y-90.837
X84.629Y-71.547
X84.715Y-59.303
X84.825Y-109.924
X85.147Y-104.013
X85.148Y-58.603
X85.372Y-62.426
X85.75Y-56.369
X86.2Y-122.15
X86.755Y-58.817
X86.962Y-85.634
X87.0Y-113.763
X87.25Y-56.392
X87.365Y-70.278
X87.556Y-58.619
X87.95Y-125.0
X88.25Y-56.386
X88.335Y-73.258
X88.62Y-71.985
X88.774Y-105.0
X88.915Y-93.26
X88.95Y-101.279
X89.175Y-52.52
X90.237Y-90.016
X91.25Y-58.609
X93.16Y-114.161
X93.75Y-55.6
X93.897Y-61.868
X94.698Y-58.606
X95.58Y-107.822
X95.608Y-58.615
X95.75Y-56.391
X96.75Y-58.65
X96.77Y-56.392
X96.924Y-54.901
X97.362Y-60.46
X97.628Y-90.0
X97.739Y-54.908
X97.824Y-124.999
X98.438Y-117.988
X98.778Y-59.497
X98.914Y-56.398
X99.802Y-56.386
X99.803Y-55.534
X99.815Y-58.619
X100.824Y-98.735
X101.453Y-56.236
X102.254Y-56.396
X102.781Y-59.824
X103.046Y-118.221
X103.262Y-58.764
X103.737Y-56.362
X103.774Y-98.289
X103.774Y-107.056
X103.9Y-127.0
X104.3Y-59.6
X104.581Y-60.454
X105.198Y-58.613
X105.346Y-54.883
X105.532Y-56.38
X105.539Y-122.257
X105.539Y-126.17
X105.59Y-107.235
X105.708Y-64.125
X106.448Y-95.378
X106.743Y-89.245
X107.37Y-90.0
X107.435Y-93.26
X107.75Y-56.272
X108.15Y-109.007
X108.79Y-101.12
X108.85Y-126.3
X109.009Y-108.754
X109.622Y-118.23
X110.141Y-125.99
X110.65Y-61.85
X111.05Y-128.5
X111.45Y-52.3
X111.944Y-58.607
X112.248Y-56.397
X112.4Y-66.75
X113.084Y-93.23
X113.188Y-53.578
X113.9Y-127.0
X114.033Y-59.418
X114.073Y-58.606
X114.389Y-106.993
X114.618Y-55.996
X115.145Y-87.029
X115.31Y-56.598
X116.514Y-126.362
X116.55Y-65.4
X116.7Y-66.75
X116.9Y-57.65
X117.436Y-53.645
X117.436Y-108.739
X119.472Y-56.998
X119.745Y-124.779
X119.8Y-127.7
X120.103Y-61.62
X120.15Y-57.8
X121.45Y-62.05
X121.5Y-59.9
X122.104Y-78.118
X122.75Y-62.1
X122.787Y-95.0
X122.941Y-81.824
X123.452Y-106.599
X125.447Y-72.173
X125.762Y-110.272
X127.608Y-65.578
X127.95Y-125.5
X129.2Y-115.0
X129.2Y-122.35
X129.475Y-68.792
X130.062Y-85.233
X130.399Y-113.025
X130.598Y-64.988
X131.45Y-126.65
X131.45Y-122.0
X131.55Y-117.6
X133.14Y-67.09
X135.129Y-94.079
X135.608Y-117.722
X135.803Y-57.016
X137.055Y-115.216
X139.045Y-66.089
X139.045Y-68.144
X139.144Y-61.094
X140.55Y-75.0
X142.74Y-95.038
X142.749Y-90.914
X143.54Y-83.792
X144.747Y-80.227
X145.028Y-85.118
X145.681Y-75.741
X146.0Y-102.747
X146.034Y-81.5
X146.887Y-73.113
T2
X63.0Y-119.0
X63.0Y-121.54
X122.0Y-123.46
X122.0Y-126.0
X124.54Y-123.46
X124.54Y-126.0
X127.08Y-123.46
X127.08Y-126.0
X129.62Y-123.46
X129.62Y-126.0
X132.16Y-123.46
X132.16Y-126.0
X134.7Y-123.46
X134.7Y-126.0
X137.24Y-123.46
X137.24Y-126.0
X139.78Y-123.46
X139.78Y-126.0
M30
