G04 #@! TF.GenerationSoftware,KiCad,Pcbnew,10.0.6*
G04 #@! TF.CreationDate,2026-10-03T00:55:08+08:00*
G04 #@! TF.ProjectId,gdep133c02-driver,67646570-3133-4336-9330-322d64726976,rev?*
G04 #@! TF.SameCoordinates,Original*
G04 #@! TF.FileFunction,Soldermask,Top*
G04 #@! TF.FilePolarity,Negative*
%FSLAX46Y46*%
G04 Gerber Fmt 4.6, Leading zero omitted, Abs format (unit mm)*
G04 Created by KiCad (PCBNEW 10.0.6) date 2026-10-03 00:55:08*
%MOMM*%
%LPD*%
G01*
G04 APERTURE LIST*
G04 Aperture macros list*
%AMRoundRect*
0 Rectangle with rounded corners*
0 $1 Rounding radius*
0 $2 $3 $4 $5 $6 $7 $8 $9 X,Y pos of 4 corners*
0 Add a 4 corners polygon primitive as box body*
4,1,4,$2,$3,$4,$5,$6,$7,$8,$9,$2,$3,0*
0 Add four circle primitives for the rounded corners*
1,1,$1+$1,$2,$3*
1,1,$1+$1,$4,$5*
1,1,$1+$1,$6,$7*
1,1,$1+$1,$8,$9*
0 Add four rect primitives between the rounded corners*
20,1,$1+$1,$2,$3,$4,$5,0*
20,1,$1+$1,$4,$5,$6,$7,0*
20,1,$1+$1,$6,$7,$8,$9,0*
20,1,$1+$1,$8,$9,$2,$3,0*%
G04 Aperture macros list end*
%ADD10RoundRect,0.250000X-0.325000X-1.100000X0.325000X-1.100000X0.325000X1.100000X-0.325000X1.100000X0*%
%ADD11RoundRect,0.250000X-0.312500X-0.625000X0.312500X-0.625000X0.312500X0.625000X-0.312500X0.625000X0*%
%ADD12RoundRect,0.250000X1.100000X-0.325000X1.100000X0.325000X-1.100000X0.325000X-1.100000X-0.325000X0*%
%ADD13RoundRect,0.150000X-0.587500X-0.150000X0.587500X-0.150000X0.587500X0.150000X-0.587500X0.150000X0*%
%ADD14RoundRect,0.112500X-0.350000X-0.112500X0.350000X-0.112500X0.350000X0.112500X-0.350000X0.112500X0*%
%ADD15C,1.500000*%
%ADD16RoundRect,0.200000X-0.200000X-0.275000X0.200000X-0.275000X0.200000X0.275000X-0.200000X0.275000X0*%
%ADD17RoundRect,0.250000X-0.300000X-0.300000X0.300000X-0.300000X0.300000X0.300000X-0.300000X0.300000X0*%
%ADD18RoundRect,0.250000X-0.250000X-0.475000X0.250000X-0.475000X0.250000X0.475000X-0.250000X0.475000X0*%
%ADD19RoundRect,0.250000X-1.750000X-2.500000X1.750000X-2.500000X1.750000X2.500000X-1.750000X2.500000X0*%
%ADD20R,0.300000X1.200000*%
%ADD21R,2.000000X1.800000*%
%ADD22RoundRect,0.150000X-0.825000X-0.150000X0.825000X-0.150000X0.825000X0.150000X-0.825000X0.150000X0*%
%ADD23RoundRect,0.218750X-0.218750X-0.256250X0.218750X-0.256250X0.218750X0.256250X-0.218750X0.256250X0*%
%ADD24C,3.200000*%
%ADD25RoundRect,0.225000X-0.225000X-0.375000X0.225000X-0.375000X0.225000X0.375000X-0.225000X0.375000X0*%
%ADD26R,1.700000X1.700000*%
%ADD27C,1.700000*%
%ADD28C,0.235000*%
%ADD29RoundRect,0.225000X-0.225000X-0.250000X0.225000X-0.250000X0.225000X0.250000X-0.225000X0.250000X0*%
%ADD30RoundRect,0.100000X-0.637500X-0.100000X0.637500X-0.100000X0.637500X0.100000X-0.637500X0.100000X0*%
G04 APERTURE END LIST*
D10*
X62525000Y-90000000D03*
X65475000Y-90000000D03*
X77525000Y-105000000D03*
X80475000Y-105000000D03*
D11*
X72537500Y-100000000D03*
X75462500Y-100000000D03*
D12*
X122500000Y-74475000D03*
X122500000Y-71525000D03*
D10*
X119525000Y-99000000D03*
X122475000Y-99000000D03*
D13*
X73062500Y-105050000D03*
X73062500Y-106950000D03*
X74937500Y-106000000D03*
D14*
X73112500Y-94350000D03*
X73112500Y-95650000D03*
X74887500Y-95000000D03*
D10*
X91525000Y-114000000D03*
X94475000Y-114000000D03*
D15*
X57000000Y-98000000D03*
X57000000Y-110000000D03*
D16*
X60175000Y-111000000D03*
X61825000Y-111000000D03*
D15*
X146000000Y-95000000D03*
D16*
X102175000Y-119000000D03*
X103825000Y-119000000D03*
X117175000Y-125000000D03*
X118825000Y-125000000D03*
D12*
X86500000Y-68475000D03*
X86500000Y-65525000D03*
D13*
X69062500Y-106050000D03*
X69062500Y-107950000D03*
X70937500Y-107000000D03*
D10*
X78525000Y-99000000D03*
X81475000Y-99000000D03*
D17*
X97600000Y-93000000D03*
X100400000Y-93000000D03*
D15*
X130000000Y-62000000D03*
X146000000Y-83000000D03*
D12*
X99500000Y-74475000D03*
X99500000Y-71525000D03*
D16*
X77175000Y-123000000D03*
X78825000Y-123000000D03*
X98175000Y-108000000D03*
X99825000Y-108000000D03*
X103175000Y-108000000D03*
X104825000Y-108000000D03*
X83175000Y-105000000D03*
X84825000Y-105000000D03*
X140175000Y-95000000D03*
X141825000Y-95000000D03*
D15*
X135000000Y-58000000D03*
D16*
X68175000Y-98000000D03*
X69825000Y-98000000D03*
D15*
X146000000Y-92000000D03*
D12*
X108500000Y-74475000D03*
X108500000Y-71525000D03*
D18*
X69050000Y-111000000D03*
X70950000Y-111000000D03*
D19*
X69750000Y-85000000D03*
X78250000Y-85000000D03*
D15*
X57000000Y-101000000D03*
D16*
X88175000Y-102000000D03*
X89825000Y-102000000D03*
X83175000Y-111000000D03*
X84825000Y-111000000D03*
D11*
X68537500Y-119000000D03*
X71462500Y-119000000D03*
D12*
X108500000Y-68475000D03*
X108500000Y-65525000D03*
D13*
X113062500Y-94050000D03*
X113062500Y-95950000D03*
X114937500Y-95000000D03*
D16*
X63175000Y-83000000D03*
X64825000Y-83000000D03*
D15*
X146000000Y-98000000D03*
D18*
X134050000Y-68000000D03*
X135950000Y-68000000D03*
D20*
X85250000Y-57500000D03*
X85750000Y-57500000D03*
X86250000Y-57500000D03*
X86750000Y-57500000D03*
X87250000Y-57500000D03*
X87750000Y-57500000D03*
X88250000Y-57500000D03*
X88750000Y-57500000D03*
X89250000Y-57500000D03*
X89750000Y-57500000D03*
X90250000Y-57500000D03*
X90750000Y-57500000D03*
X91250000Y-57500000D03*
X91750000Y-57500000D03*
X92250000Y-57500000D03*
X92750000Y-57500000D03*
X93250000Y-57500000D03*
X93750000Y-57500000D03*
X94250000Y-57500000D03*
X94750000Y-57500000D03*
X95250000Y-57500000D03*
X95750000Y-57500000D03*
X96250000Y-57500000D03*
X96750000Y-57500000D03*
X97250000Y-57500000D03*
X97750000Y-57500000D03*
X98250000Y-57500000D03*
X98750000Y-57500000D03*
X99250000Y-57500000D03*
X99750000Y-57500000D03*
X100250000Y-57500000D03*
X100750000Y-57500000D03*
X101250000Y-57500000D03*
X101750000Y-57500000D03*
X102250000Y-57500000D03*
X102750000Y-57500000D03*
X103250000Y-57500000D03*
X103750000Y-57500000D03*
X104250000Y-57500000D03*
X104750000Y-57500000D03*
X105250000Y-57500000D03*
X105750000Y-57500000D03*
X106250000Y-57500000D03*
X106750000Y-57500000D03*
X107250000Y-57500000D03*
X107750000Y-57500000D03*
X108250000Y-57500000D03*
X108750000Y-57500000D03*
X109250000Y-57500000D03*
X109750000Y-57500000D03*
X110250000Y-57500000D03*
X110750000Y-57500000D03*
X111250000Y-57500000D03*
X111750000Y-57500000D03*
X112250000Y-57500000D03*
X112750000Y-57500000D03*
X113250000Y-57500000D03*
X113750000Y-57500000D03*
X114250000Y-57500000D03*
X114750000Y-57500000D03*
D21*
X83700000Y-60750000D03*
X116300000Y-60750000D03*
D18*
X130050000Y-79000000D03*
X131950000Y-79000000D03*
D16*
X98175000Y-127000000D03*
X99825000Y-127000000D03*
X79175000Y-63500000D03*
X80825000Y-63500000D03*
D22*
X59525000Y-75095000D03*
X59525000Y-76365000D03*
X59525000Y-77635000D03*
X59525000Y-78905000D03*
X64475000Y-78905000D03*
X64475000Y-77635000D03*
X64475000Y-76365000D03*
X64475000Y-75095000D03*
D16*
X108175000Y-98000000D03*
X109825000Y-98000000D03*
X140175000Y-120000000D03*
X141825000Y-120000000D03*
D23*
X95212500Y-111000000D03*
X96787500Y-111000000D03*
D16*
X118175000Y-108000000D03*
X119825000Y-108000000D03*
D24*
X55000000Y-55000000D03*
D11*
X99537500Y-111000000D03*
X102462500Y-111000000D03*
D12*
X72500000Y-74475000D03*
X72500000Y-71525000D03*
D25*
X117350000Y-93000000D03*
X120650000Y-93000000D03*
D13*
X137062500Y-116050000D03*
X137062500Y-117950000D03*
X138937500Y-117000000D03*
D12*
X90500000Y-74475000D03*
X90500000Y-71525000D03*
D10*
X71525000Y-115000000D03*
X74475000Y-115000000D03*
D11*
X85537500Y-119000000D03*
X88462500Y-119000000D03*
D12*
X117500000Y-74475000D03*
X117500000Y-71525000D03*
D24*
X145000000Y-125000000D03*
D12*
X81500000Y-74475000D03*
X81500000Y-71525000D03*
D16*
X121175000Y-62000000D03*
X122825000Y-62000000D03*
X113175000Y-127000000D03*
X114825000Y-127000000D03*
D15*
X57000000Y-89000000D03*
D11*
X122537500Y-105000000D03*
X125462500Y-105000000D03*
D26*
X63000000Y-119000000D03*
D27*
X63000000Y-121540000D03*
D28*
X81750000Y-118750000D03*
X82250000Y-118750000D03*
X81750000Y-119250000D03*
X82250000Y-119250000D03*
D16*
X64175000Y-111000000D03*
X65825000Y-111000000D03*
D29*
X130225000Y-91000000D03*
X131775000Y-91000000D03*
D10*
X126525000Y-72000000D03*
X129475000Y-72000000D03*
D15*
X57000000Y-107000000D03*
D23*
X97212500Y-119000000D03*
X98787500Y-119000000D03*
D16*
X83175000Y-108000000D03*
X84825000Y-108000000D03*
D12*
X122500000Y-68475000D03*
X122500000Y-65525000D03*
D29*
X55225000Y-74000000D03*
X56775000Y-74000000D03*
D12*
X72500000Y-68475000D03*
X72500000Y-65525000D03*
D16*
X141175000Y-83000000D03*
X142825000Y-83000000D03*
D13*
X135062500Y-78050000D03*
X135062500Y-79950000D03*
X136937500Y-79000000D03*
D12*
X113500000Y-68475000D03*
X113500000Y-65525000D03*
D16*
X108175000Y-108000000D03*
X109825000Y-108000000D03*
X58175000Y-83000000D03*
X59825000Y-83000000D03*
X99175000Y-95000000D03*
X100825000Y-95000000D03*
D13*
X135062500Y-86050000D03*
X135062500Y-87950000D03*
X136937500Y-87000000D03*
D30*
X120137500Y-111075000D03*
X120137500Y-111725000D03*
X120137500Y-112375000D03*
X120137500Y-113025000D03*
X120137500Y-113675000D03*
X120137500Y-114325000D03*
X120137500Y-114975000D03*
X120137500Y-115625000D03*
X120137500Y-116275000D03*
X120137500Y-116925000D03*
X125862500Y-116925000D03*
X125862500Y-116275000D03*
X125862500Y-115625000D03*
X125862500Y-114975000D03*
X125862500Y-114325000D03*
X125862500Y-113675000D03*
X125862500Y-113025000D03*
X125862500Y-112375000D03*
X125862500Y-111725000D03*
X125862500Y-111075000D03*
D15*
X57000000Y-113000000D03*
D13*
X93062500Y-94050000D03*
X93062500Y-95950000D03*
X94937500Y-95000000D03*
D12*
X117500000Y-68475000D03*
X117500000Y-65525000D03*
X90500000Y-68475000D03*
X90500000Y-65525000D03*
D24*
X145000000Y-55000000D03*
D10*
X104525000Y-112000000D03*
X107475000Y-112000000D03*
D16*
X89175000Y-53500000D03*
X90825000Y-53500000D03*
D15*
X125000000Y-58000000D03*
D11*
X75537500Y-119000000D03*
X78462500Y-119000000D03*
D15*
X130000000Y-58000000D03*
X146000000Y-80000000D03*
D11*
X92537500Y-100000000D03*
X95462500Y-100000000D03*
D12*
X113500000Y-74475000D03*
X113500000Y-71525000D03*
D29*
X137225000Y-110000000D03*
X138775000Y-110000000D03*
D14*
X64112500Y-106350000D03*
X64112500Y-107650000D03*
X65887500Y-107000000D03*
D12*
X77500000Y-68475000D03*
X77500000Y-65525000D03*
D19*
X109750000Y-85000000D03*
X118250000Y-85000000D03*
D12*
X95500000Y-74475000D03*
X95500000Y-71525000D03*
D16*
X108175000Y-102000000D03*
X109825000Y-102000000D03*
D13*
X117062500Y-117050000D03*
X117062500Y-118950000D03*
X118937500Y-118000000D03*
D16*
X103175000Y-127000000D03*
X104825000Y-127000000D03*
D29*
X128225000Y-109000000D03*
X129775000Y-109000000D03*
D15*
X57000000Y-119000000D03*
D16*
X63175000Y-70000000D03*
X64825000Y-70000000D03*
X119175000Y-95000000D03*
X120825000Y-95000000D03*
D13*
X130062500Y-86050000D03*
X130062500Y-87950000D03*
X131937500Y-87000000D03*
D16*
X140175000Y-91000000D03*
X141825000Y-91000000D03*
D24*
X55000000Y-125000000D03*
D16*
X108175000Y-127000000D03*
X109825000Y-127000000D03*
D12*
X81500000Y-68475000D03*
X81500000Y-65525000D03*
D15*
X146000000Y-107000000D03*
D12*
X95500000Y-68475000D03*
X95500000Y-65525000D03*
D15*
X146000000Y-71000000D03*
D16*
X81175000Y-123000000D03*
X82825000Y-123000000D03*
D15*
X146000000Y-74000000D03*
D12*
X77500000Y-74475000D03*
X77500000Y-71525000D03*
D19*
X89750000Y-85000000D03*
X98250000Y-85000000D03*
D10*
X140525000Y-75000000D03*
X143475000Y-75000000D03*
D16*
X113175000Y-108000000D03*
X114825000Y-108000000D03*
X79175000Y-61000000D03*
X80825000Y-61000000D03*
D10*
X82525000Y-90000000D03*
X85475000Y-90000000D03*
X102525000Y-90000000D03*
X105475000Y-90000000D03*
D16*
X86175000Y-105000000D03*
X87825000Y-105000000D03*
X108175000Y-94000000D03*
X109825000Y-94000000D03*
D11*
X112537500Y-100000000D03*
X115462500Y-100000000D03*
D12*
X104500000Y-74475000D03*
X104500000Y-71525000D03*
D15*
X60000000Y-126000000D03*
D16*
X117175000Y-122000000D03*
X118825000Y-122000000D03*
D18*
X78050000Y-109000000D03*
X79950000Y-109000000D03*
D26*
X122000000Y-126000000D03*
D27*
X122000000Y-123460000D03*
X124540000Y-126000000D03*
X124540000Y-123460000D03*
X127080000Y-126000000D03*
X127080000Y-123460000D03*
X129620000Y-126000000D03*
X129620000Y-123460000D03*
X132160000Y-126000000D03*
X132160000Y-123460000D03*
X134700000Y-126000000D03*
X134700000Y-123460000D03*
X137240000Y-126000000D03*
X137240000Y-123460000D03*
X139780000Y-126000000D03*
X139780000Y-123460000D03*
D16*
X88175000Y-94000000D03*
X89825000Y-94000000D03*
D12*
X104500000Y-68475000D03*
X104500000Y-65525000D03*
D15*
X146000000Y-86000000D03*
D17*
X77600000Y-94000000D03*
X80400000Y-94000000D03*
D18*
X141050000Y-79000000D03*
X142950000Y-79000000D03*
D16*
X58175000Y-70000000D03*
X59825000Y-70000000D03*
D12*
X86500000Y-74475000D03*
X86500000Y-71525000D03*
D29*
X103225000Y-123000000D03*
X104775000Y-123000000D03*
D12*
X99500000Y-68475000D03*
X99500000Y-65525000D03*
D18*
X136050000Y-95000000D03*
X137950000Y-95000000D03*
D10*
X99525000Y-99000000D03*
X102475000Y-99000000D03*
X110525000Y-112000000D03*
X113475000Y-112000000D03*
D18*
X141050000Y-87000000D03*
X142950000Y-87000000D03*
D10*
X85525000Y-114000000D03*
X88475000Y-114000000D03*
D18*
X140050000Y-68000000D03*
X141950000Y-68000000D03*
X140050000Y-62000000D03*
X141950000Y-62000000D03*
D16*
X79175000Y-59000000D03*
X80825000Y-59000000D03*
D15*
X57000000Y-86000000D03*
D16*
X107175000Y-119000000D03*
X108825000Y-119000000D03*
X88175000Y-98000000D03*
X89825000Y-98000000D03*
D10*
X126525000Y-66000000D03*
X129475000Y-66000000D03*
D30*
X129137500Y-111075000D03*
X129137500Y-111725000D03*
X129137500Y-112375000D03*
X129137500Y-113025000D03*
X129137500Y-113675000D03*
X129137500Y-114325000D03*
X129137500Y-114975000D03*
X129137500Y-115625000D03*
X129137500Y-116275000D03*
X129137500Y-116925000D03*
X134862500Y-116925000D03*
X134862500Y-116275000D03*
X134862500Y-115625000D03*
X134862500Y-114975000D03*
X134862500Y-114325000D03*
X134862500Y-113675000D03*
X134862500Y-113025000D03*
X134862500Y-112375000D03*
X134862500Y-111725000D03*
X134862500Y-111075000D03*
D15*
X146000000Y-104000000D03*
X57000000Y-95000000D03*
M02*
