G04 #@! TF.GenerationSoftware,KiCad,Pcbnew,10.0.6*
G04 #@! TF.CreationDate,2026-10-10T21:56:58+08:00*
G04 #@! TF.ProjectId,gdep133c02-driver,67646570-3133-4336-9330-322d64726976,0.9-RESISTORS*
G04 #@! TF.SameCoordinates,Original*
G04 #@! TF.FileFunction,Copper,L3,Inr*
G04 #@! TF.FilePolarity,Positive*
%FSLAX46Y46*%
G04 Gerber Fmt 4.6, Leading zero omitted, Abs format (unit mm)*
G04 Created by KiCad (PCBNEW 10.0.6) date 2026-10-10 21:56:58*
%MOMM*%
%LPD*%
G01*
G04 APERTURE LIST*
G04 #@! TA.AperFunction,ComponentPad*
%ADD10R,1.700000X1.700000*%
G04 #@! TD*
G04 #@! TA.AperFunction,ComponentPad*
%ADD11C,1.700000*%
G04 #@! TD*
G04 #@! TA.AperFunction,ViaPad*
%ADD12C,0.600000*%
G04 #@! TD*
G04 #@! TA.AperFunction,Conductor*
%ADD13C,0.500000*%
G04 #@! TD*
G04 #@! TA.AperFunction,Conductor*
%ADD14C,0.800000*%
G04 #@! TD*
G04 #@! TA.AperFunction,Conductor*
%ADD15C,0.200000*%
G04 #@! TD*
G04 APERTURE END LIST*
D10*
X63000000Y-119000000D03*
D11*
X63000000Y-121540000D03*
D10*
X122000000Y-126000000D03*
D11*
X122000000Y-123460000D03*
X124540000Y-126000000D03*
X124540000Y-123460000D03*
X127080000Y-126000000D03*
X127080000Y-123460000D03*
X129620000Y-126000000D03*
X129620000Y-123460000D03*
X132160000Y-126000000D03*
X132160000Y-123460000D03*
X134700000Y-126000000D03*
X134700000Y-123460000D03*
X137240000Y-126000000D03*
X137240000Y-123460000D03*
X139780000Y-126000000D03*
X139780000Y-123460000D03*
D12*
X91750000Y-93100000D03*
X83751600Y-63202100D03*
X122750000Y-62100000D03*
X125762000Y-110272000D03*
X58027100Y-101881000D03*
X97628100Y-89999600D03*
X61007100Y-83081600D03*
X109622000Y-118230000D03*
X95750000Y-56390900D03*
X61700000Y-70050000D03*
X98437500Y-117988000D03*
X59500000Y-70200000D03*
X85372000Y-62425700D03*
X77100000Y-78150000D03*
X121500000Y-59900000D03*
X71150000Y-77850000D03*
X103046000Y-118221000D03*
X79226900Y-73675000D03*
X93750000Y-55600000D03*
X94950000Y-96300000D03*
X113188500Y-53578200D03*
X55750000Y-73600000D03*
X64800000Y-70050000D03*
X55300000Y-74000000D03*
X135608000Y-117722000D03*
X107370000Y-89999600D03*
X104300000Y-59600000D03*
X116550000Y-65400000D03*
X110650000Y-61850000D03*
X106448000Y-95378200D03*
X105590000Y-107235000D03*
X74215100Y-99101200D03*
X84096600Y-90837300D03*
X145681000Y-75741400D03*
X112400000Y-66750000D03*
X131450000Y-122000000D03*
X82733900Y-121951000D03*
X71201900Y-98873900D03*
X93159600Y-114161000D03*
X77897500Y-113763000D03*
X103774000Y-98289000D03*
X87000000Y-113763000D03*
X146034000Y-81500000D03*
X64323500Y-90000000D03*
X59624200Y-92753100D03*
X83632800Y-98302400D03*
X58109800Y-96574700D03*
X129200000Y-122350000D03*
X129475000Y-68791800D03*
X105539000Y-122257000D03*
X116700000Y-66750000D03*
X69000000Y-115650000D03*
X81650000Y-116850000D03*
X86200000Y-122150000D03*
X63700000Y-118350000D03*
X87950000Y-125000000D03*
X83200000Y-120000000D03*
X146000000Y-102747000D03*
X85350000Y-107450000D03*
X88773600Y-105000000D03*
X114617700Y-55996500D03*
X74850000Y-107050000D03*
X113084000Y-93229800D03*
X73075500Y-66669500D03*
X87556500Y-58619400D03*
X73075500Y-97492800D03*
X122941000Y-81823700D03*
X115145100Y-87029200D03*
X145028000Y-85118100D03*
X114033100Y-59417600D03*
X105197600Y-58613100D03*
X122787000Y-95000000D03*
X88619800Y-71985000D03*
X88250000Y-56385600D03*
X78758400Y-75560100D03*
X74651800Y-93821700D03*
X143540000Y-83792100D03*
X84825000Y-109924000D03*
X76987500Y-95075200D03*
X119745000Y-124779000D03*
X117436000Y-53645400D03*
X117436000Y-108739000D03*
X135803000Y-57016300D03*
X96770400Y-56391700D03*
X87365500Y-70278500D03*
X104580600Y-60453600D03*
X88335200Y-73258300D03*
X107749900Y-56271700D03*
X64000000Y-111000000D03*
X91250000Y-58608600D03*
X77100000Y-100450000D03*
X57888100Y-94111900D03*
X67796700Y-107981000D03*
X80843500Y-92838300D03*
X100824000Y-98734600D03*
X93896600Y-61867700D03*
X58298900Y-88933200D03*
X98778500Y-59497100D03*
X97824000Y-124999000D03*
X95580100Y-107822000D03*
X98914300Y-56397800D03*
X105539000Y-126170000D03*
X103774000Y-107056000D03*
X102254400Y-56395600D03*
X85147500Y-104013000D03*
X103737100Y-56361700D03*
X142749000Y-90914400D03*
X105708400Y-64125400D03*
X135129000Y-94078600D03*
X142740000Y-95038300D03*
X105345600Y-54883300D03*
X135050000Y-78950000D03*
X146000000Y-98000000D03*
X120150000Y-57800000D03*
X135000000Y-91000000D03*
X115309800Y-56598300D03*
X116900000Y-57650000D03*
X135700000Y-91650000D03*
X140550000Y-75000000D03*
X104500000Y-94000000D03*
X107435000Y-93259700D03*
X80924200Y-73177900D03*
X84715100Y-59303400D03*
X106850000Y-97800000D03*
X109400000Y-95950000D03*
X109250000Y-95350000D03*
X108790000Y-101120000D03*
X85750000Y-56369000D03*
X84628900Y-71547300D03*
X106743000Y-89245500D03*
X111944200Y-58607000D03*
X133140000Y-67090200D03*
X85148200Y-58602600D03*
X139144000Y-61094500D03*
X86754700Y-58817200D03*
X86300000Y-85634000D03*
X90237100Y-90016000D03*
X88950300Y-101279000D03*
X87250000Y-56392100D03*
X81608700Y-86729800D03*
X88914800Y-93260200D03*
X120600000Y-64849999D03*
X124400000Y-66000000D03*
X100800000Y-62200000D03*
X120150000Y-69150000D03*
X127608000Y-65578100D03*
X146887000Y-73112600D03*
X110650000Y-66599999D03*
X58873200Y-69193300D03*
X94698000Y-58605600D03*
X61750400Y-71424600D03*
X95608300Y-58615100D03*
X131550000Y-117600000D03*
X121450000Y-62050000D03*
X96750000Y-58650000D03*
X111450000Y-52300000D03*
X108150000Y-109007000D03*
X110141000Y-125990000D03*
X99803300Y-55534100D03*
X122104000Y-78118000D03*
X119472000Y-56998300D03*
X127950000Y-125500000D03*
X123452000Y-106599000D03*
X130399000Y-113025000D03*
X129199999Y-115000000D03*
X99802000Y-56386400D03*
X99815300Y-58618800D03*
X96923600Y-54900700D03*
X78616100Y-58043800D03*
X97362000Y-60460300D03*
X89175000Y-52519600D03*
X97739300Y-54908500D03*
X64112500Y-105600000D03*
X101452600Y-56235700D03*
X139045000Y-66088800D03*
X139045000Y-68144300D03*
X102780900Y-59823800D03*
X103262400Y-58763800D03*
X130062000Y-85233200D03*
X105532100Y-56380400D03*
X78588000Y-67387000D03*
X125447000Y-72173400D03*
X144747000Y-80226600D03*
X112248100Y-56397300D03*
X114072700Y-58605900D03*
X113000000Y-108000000D03*
X116514000Y-126362000D03*
X114200000Y-113900000D03*
X115700000Y-129100000D03*
X118500000Y-126300000D03*
X113900000Y-127000000D03*
X131449999Y-126650000D03*
X81420200Y-119969000D03*
X77914900Y-122260000D03*
X137055000Y-115216000D03*
X130598000Y-64988200D03*
X80022600Y-122857000D03*
X103900000Y-127000000D03*
X119800000Y-127700000D03*
X111050000Y-128500000D03*
X108850000Y-126300000D03*
D13*
X94150000Y-55750000D02*
X93900000Y-55750000D01*
X94400000Y-55900000D02*
X94300000Y-55800000D01*
D14*
X106153000Y-110272000D02*
X125762000Y-110272000D01*
X98437500Y-117988000D02*
X106153000Y-110272000D01*
D13*
X94600000Y-55900000D02*
X94400000Y-55900000D01*
D14*
X58027100Y-101881000D02*
X74133600Y-117988000D01*
D13*
X95050000Y-56350000D02*
X94600000Y-55900000D01*
X95750000Y-56390900D02*
X95050000Y-56350000D01*
X95551500Y-89999600D02*
X79226900Y-73675000D01*
D15*
X93750000Y-55600000D02*
X93900000Y-55750000D01*
D13*
X94300000Y-55800000D02*
X94200000Y-55800000D01*
D14*
X74133600Y-117988000D02*
X98437500Y-117988000D01*
D13*
X97628100Y-89999600D02*
X95551500Y-89999600D01*
X94200000Y-55800000D02*
X94150000Y-55750000D01*
D15*
X112400000Y-62650000D02*
X112450000Y-62700000D01*
X115900000Y-64800000D02*
X116100000Y-65000000D01*
X112650000Y-62800000D02*
X113000000Y-63150000D01*
X113550000Y-63200000D02*
X113600000Y-63250000D01*
X110650000Y-61850000D02*
X110800000Y-61850000D01*
X111750000Y-62300000D02*
X112050000Y-62600000D01*
X112500000Y-62700000D02*
X112600000Y-62800000D01*
X114150000Y-63650000D02*
X114300000Y-63800000D01*
X112600000Y-62800000D02*
X112650000Y-62800000D01*
X110800000Y-61850000D02*
X110900000Y-61950000D01*
X112400000Y-66750000D02*
X116700000Y-66750000D01*
X113600000Y-63250000D02*
X113650000Y-63250000D01*
X111200000Y-62000000D02*
X111350000Y-62150000D01*
X113850000Y-63400000D02*
X114100000Y-63650000D01*
X113250000Y-63150000D02*
X113300000Y-63200000D01*
X112050000Y-62600000D02*
X112100000Y-62600000D01*
X113300000Y-63200000D02*
X113550000Y-63200000D01*
X116150000Y-65000000D02*
X116550000Y-65400000D01*
X113650000Y-63250000D02*
X113800000Y-63400000D01*
X114500000Y-63850000D02*
X115150000Y-64500000D01*
X110950000Y-61950000D02*
X111000000Y-62000000D01*
X115750000Y-64800000D02*
X115900000Y-64800000D01*
X112150000Y-62650000D02*
X112400000Y-62650000D01*
X114400000Y-63800000D02*
X114450000Y-63850000D01*
X115450000Y-64500000D02*
X115750000Y-64800000D01*
X112100000Y-62600000D02*
X112150000Y-62650000D01*
X112450000Y-62700000D02*
X112500000Y-62700000D01*
X113800000Y-63400000D02*
X113850000Y-63400000D01*
X111350000Y-62150000D02*
X111400000Y-62150000D01*
X114300000Y-63800000D02*
X114400000Y-63800000D01*
X114450000Y-63850000D02*
X114500000Y-63850000D01*
X110900000Y-61950000D02*
X110950000Y-61950000D01*
X111000000Y-62000000D02*
X111200000Y-62000000D01*
X111400000Y-62150000D02*
X111550000Y-62300000D01*
X115150000Y-64500000D02*
X115450000Y-64500000D01*
X111550000Y-62300000D02*
X111750000Y-62300000D01*
X114100000Y-63650000D02*
X114150000Y-63650000D01*
X116100000Y-65000000D02*
X116150000Y-65000000D01*
X113000000Y-63150000D02*
X113250000Y-63150000D01*
X122602000Y-102747000D02*
X113084000Y-93229800D01*
X113084000Y-93229800D02*
X101314000Y-105000000D01*
X101314000Y-105000000D02*
X88773600Y-105000000D01*
X146000000Y-102747000D02*
X122602000Y-102747000D01*
X86453400Y-60019200D02*
X87556500Y-58916100D01*
X73075500Y-66669500D02*
X79725800Y-60019200D01*
X79725800Y-60019200D02*
X86453400Y-60019200D01*
X87556500Y-58916100D02*
X87556500Y-58619400D01*
D13*
X123780000Y-95000000D02*
X133662000Y-85118100D01*
X122787000Y-95000000D02*
X123780000Y-95000000D01*
D15*
X105844400Y-64727100D02*
X105459300Y-64727100D01*
D13*
X133662000Y-85118100D02*
X145028000Y-85118100D01*
D15*
X122941000Y-81823700D02*
X105844400Y-64727100D01*
X105197600Y-63785400D02*
X105197600Y-58613100D01*
X105106700Y-63876300D02*
X105197600Y-63785400D01*
X105106700Y-64374500D02*
X105106700Y-63876300D01*
X105459300Y-64727100D02*
X105106700Y-64374500D01*
X78977800Y-73073300D02*
X78625200Y-73425900D01*
X78625200Y-75426900D02*
X78758400Y-75560100D01*
X88619800Y-71985000D02*
X88192600Y-72412200D01*
X78625200Y-73425900D02*
X78625200Y-75426900D01*
X88192600Y-72412200D02*
X79946900Y-72412200D01*
X79946900Y-72412200D02*
X79285800Y-73073300D01*
X79285800Y-73073300D02*
X78977800Y-73073300D01*
D13*
X76987500Y-95075200D02*
X81441600Y-99529300D01*
X133500000Y-83792100D02*
X143540000Y-83792100D01*
X81441600Y-99529300D02*
X84335200Y-99529300D01*
X84825000Y-109924000D02*
X84335200Y-109434000D01*
X128010000Y-89282000D02*
X133500000Y-83792100D01*
X84335200Y-109434000D02*
X84335200Y-99529300D01*
X84335200Y-99529300D02*
X103974000Y-99529300D01*
X103974000Y-99529300D02*
X114221000Y-89282000D01*
X114221000Y-89282000D02*
X128010000Y-89282000D01*
D15*
X135803000Y-57016300D02*
X132432100Y-53645400D01*
X116767100Y-52976500D02*
X100522200Y-52976500D01*
X132432100Y-53645400D02*
X117436000Y-53645400D01*
X97107000Y-56391700D02*
X96770400Y-56391700D01*
X100522200Y-52976500D02*
X97107000Y-56391700D01*
X117436000Y-53645400D02*
X116767100Y-52976500D01*
D13*
X67796700Y-94371500D02*
X58147700Y-94371500D01*
X69329900Y-92838300D02*
X67796700Y-94371500D01*
X67796700Y-94371500D02*
X67796700Y-107981000D01*
X80843500Y-92838300D02*
X69329900Y-92838300D01*
X58147700Y-94371500D02*
X57888100Y-94111900D01*
X58298900Y-88933200D02*
X78001600Y-88933200D01*
D15*
X78001600Y-73269300D02*
X80406400Y-70864500D01*
D13*
X100824000Y-98734600D02*
X87803000Y-98734600D01*
X87803000Y-98734600D02*
X78001600Y-88933200D01*
D15*
X80406400Y-70864500D02*
X84899800Y-70864500D01*
D13*
X78001600Y-73269300D02*
X78001600Y-88933200D01*
D15*
X84899800Y-70864500D02*
X93896600Y-61867700D01*
X145676000Y-87986900D02*
X145676000Y-84907000D01*
X142749000Y-90914400D02*
X145676000Y-87986900D01*
X107222600Y-64125400D02*
X125312000Y-82214800D01*
X142984000Y-82214800D02*
X125312000Y-82214800D01*
X105708400Y-64125400D02*
X107222600Y-64125400D01*
X145676000Y-84907000D02*
X142984000Y-82214800D01*
X105647200Y-54581700D02*
X105345600Y-54883300D01*
X113487800Y-54581700D02*
X105647200Y-54581700D01*
X129512400Y-54883300D02*
X113789400Y-54883300D01*
X130370000Y-55740900D02*
X147492000Y-72862700D01*
X130370000Y-55740900D02*
X129512400Y-54883300D01*
X147492000Y-88367500D02*
X141781000Y-94078600D01*
X142740000Y-95038300D02*
X141781000Y-94078600D01*
X141781000Y-94078600D02*
X135129000Y-94078600D01*
X147492000Y-72862700D02*
X147492000Y-88367500D01*
X113789400Y-54883300D02*
X113487800Y-54581700D01*
X120000000Y-57750000D02*
X120050000Y-57800000D01*
X116900000Y-57650000D02*
X119650000Y-57650000D01*
X119750000Y-57750000D02*
X120000000Y-57750000D01*
X119650000Y-57650000D02*
X119750000Y-57750000D01*
X120050000Y-57800000D02*
X120150000Y-57800000D01*
X104500000Y-94000000D02*
X107435000Y-93259700D01*
X107435000Y-93259700D02*
X87352900Y-73177900D01*
X87352900Y-73177900D02*
X80924200Y-73177900D01*
X109050000Y-96200000D02*
X109150000Y-96200000D01*
X108350000Y-96600000D02*
X108650000Y-96600000D01*
X108000000Y-96850000D02*
X108100000Y-96850000D01*
X107850000Y-97000000D02*
X108000000Y-96850000D01*
X109150000Y-96200000D02*
X109400000Y-95950000D01*
X109250000Y-95350000D02*
X106850000Y-97750000D01*
X108100000Y-96850000D02*
X108350000Y-96600000D01*
X108650000Y-96600000D02*
X109050000Y-96200000D01*
X106850000Y-97750000D02*
X106850000Y-97800000D01*
X106743000Y-89245500D02*
X88880800Y-71383300D01*
X88880800Y-71383300D02*
X84792900Y-71383300D01*
X84792900Y-71383300D02*
X84628900Y-71547300D01*
X121416600Y-60985500D02*
X121816800Y-61385700D01*
X133140000Y-66573900D02*
X133140000Y-66679900D01*
X111944200Y-58607000D02*
X114322700Y-60985500D01*
X127951800Y-61385700D02*
X133140000Y-66573900D01*
X133140000Y-67090200D02*
X133140000Y-66679900D01*
X121816800Y-61385700D02*
X127951800Y-61385700D01*
X114322700Y-60985500D02*
X121416600Y-60985500D01*
X113654100Y-54180000D02*
X100094500Y-54180000D01*
X86637700Y-57113100D02*
X85148200Y-58602600D01*
X130978000Y-55339200D02*
X129920400Y-54281600D01*
X129920400Y-54281600D02*
X113755700Y-54281600D01*
X136734000Y-61094500D02*
X139144000Y-61094500D01*
X100094500Y-54180000D02*
X97161400Y-57113100D01*
X130978000Y-55339200D02*
X136734000Y-61094500D01*
X97161400Y-57113100D02*
X86637700Y-57113100D01*
X113755700Y-54281600D02*
X113654100Y-54180000D01*
X90237100Y-90016000D02*
X90237100Y-88909600D01*
X90237100Y-88909600D02*
X86300000Y-85634000D01*
X88139100Y-93260200D02*
X88914800Y-93260200D01*
X81608700Y-86729800D02*
X88139100Y-93260200D01*
X122750000Y-65800000D02*
X122600000Y-65800000D01*
X112000000Y-67500000D02*
X111950000Y-67450000D01*
X127608000Y-65578100D02*
X128504000Y-65578100D01*
X120150000Y-69150000D02*
X115050000Y-69150000D01*
X122150000Y-65599999D02*
X121950000Y-65599999D01*
X111950000Y-67450000D02*
X111800000Y-67450000D01*
X113150000Y-68150000D02*
X113050000Y-68150000D01*
X122850000Y-65900000D02*
X122750000Y-65800000D01*
X114500000Y-68800000D02*
X114450000Y-68800000D01*
X121750000Y-65550000D02*
X121700000Y-65500000D01*
X122250000Y-65700000D02*
X122150000Y-65599999D01*
X122950000Y-65900000D02*
X122850000Y-65900000D01*
X129921000Y-65979800D02*
X137054000Y-73112600D01*
X123050000Y-66000000D02*
X122950000Y-65900000D01*
X115050000Y-69150000D02*
X114900000Y-69000000D01*
X121950000Y-65599999D02*
X121900000Y-65550000D01*
X120850000Y-65050000D02*
X120650000Y-64849999D01*
X111800000Y-67450000D02*
X111250000Y-66900000D01*
X113550000Y-68250000D02*
X113400000Y-68250000D01*
X114000000Y-68450000D02*
X113900000Y-68450000D01*
X113650000Y-68300000D02*
X113600000Y-68300000D01*
X137054000Y-73112600D02*
X146887000Y-73112600D01*
X112350000Y-67500000D02*
X112000000Y-67500000D01*
X110950000Y-66650000D02*
X110800000Y-66650000D01*
X122600000Y-65800000D02*
X122500000Y-65700000D01*
X113350000Y-68200000D02*
X113200000Y-68200000D01*
X114800000Y-69000000D02*
X114650000Y-68850000D01*
X110750000Y-66599999D02*
X110650000Y-66599999D01*
X128504000Y-65578100D02*
X128905000Y-65979800D01*
X121550000Y-65450000D02*
X121400000Y-65450000D01*
X128905000Y-65979800D02*
X129921000Y-65979800D01*
X113900000Y-68450000D02*
X113800000Y-68350000D01*
X114900000Y-69000000D02*
X114800000Y-69000000D01*
X121900000Y-65550000D02*
X121750000Y-65550000D01*
X113700000Y-68350000D02*
X113650000Y-68300000D01*
X114550000Y-68850000D02*
X114500000Y-68800000D01*
X113050000Y-68150000D02*
X112900000Y-68000000D01*
X121000000Y-65150000D02*
X120900000Y-65050000D01*
X121700000Y-65500000D02*
X121600000Y-65500000D01*
X111250000Y-66900000D02*
X111200000Y-66900000D01*
X110800000Y-66650000D02*
X110750000Y-66599999D01*
X120900000Y-65050000D02*
X120850000Y-65050000D01*
X121050000Y-65150000D02*
X121000000Y-65150000D01*
X121350000Y-65400000D02*
X121300000Y-65400000D01*
X111200000Y-66900000D02*
X110950000Y-66650000D01*
X112850000Y-68000000D02*
X112350000Y-67500000D01*
X114450000Y-68800000D02*
X114350000Y-68700000D01*
X114300000Y-68700000D02*
X114200000Y-68600000D01*
X114150000Y-68600000D02*
X114000000Y-68450000D01*
X114350000Y-68700000D02*
X114300000Y-68700000D01*
X114650000Y-68850000D02*
X114550000Y-68850000D01*
X113800000Y-68350000D02*
X113700000Y-68350000D01*
X121300000Y-65400000D02*
X121050000Y-65150000D01*
X113600000Y-68300000D02*
X113550000Y-68250000D01*
X121600000Y-65500000D02*
X121550000Y-65450000D01*
X120650000Y-64849999D02*
X120600000Y-64849999D01*
X113200000Y-68200000D02*
X113150000Y-68150000D01*
X113400000Y-68250000D02*
X113350000Y-68200000D01*
X122500000Y-65700000D02*
X122250000Y-65700000D01*
X114200000Y-68600000D02*
X114150000Y-68600000D01*
X112900000Y-68000000D02*
X112850000Y-68000000D01*
X124400000Y-66000000D02*
X123050000Y-66000000D01*
X121400000Y-65450000D02*
X121350000Y-65400000D01*
X73939400Y-68857700D02*
X73603800Y-69193300D01*
X94698000Y-58816200D02*
X84656500Y-68857700D01*
X94698000Y-58605600D02*
X94698000Y-58816200D01*
X84656500Y-68857700D02*
X73939400Y-68857700D01*
X58873200Y-69193300D02*
X73603800Y-69193300D01*
X80301900Y-69259400D02*
X78136700Y-71424600D01*
X84964000Y-69259400D02*
X80301900Y-69259400D01*
X61750400Y-71424600D02*
X78136700Y-71424600D01*
X95608300Y-58615100D02*
X84964000Y-69259400D01*
X129878000Y-113025000D02*
X123452000Y-106599000D01*
X119472000Y-56998300D02*
X117858700Y-55385000D01*
X104743900Y-55132400D02*
X101056000Y-55132400D01*
X113723100Y-55385000D02*
X113321500Y-54983400D01*
X110518700Y-55485000D02*
X105096500Y-55485000D01*
X105096500Y-55485000D02*
X104743900Y-55132400D01*
X113321500Y-54983400D02*
X111020300Y-54983400D01*
X121895000Y-78118000D02*
X122104000Y-78118000D01*
X111020300Y-54983400D02*
X110518700Y-55485000D01*
X117858700Y-55385000D02*
X113723100Y-55385000D01*
X130399000Y-113025000D02*
X129878000Y-113025000D01*
X101056000Y-55132400D02*
X99802000Y-56386400D01*
X99182500Y-58213400D02*
X99409900Y-58213400D01*
X97881200Y-59941100D02*
X97881200Y-59514700D01*
X97881200Y-59514700D02*
X99182500Y-58213400D01*
X97362000Y-60460300D02*
X97881200Y-59941100D01*
X99409900Y-58213400D02*
X99815300Y-58618800D01*
X96923600Y-54900700D02*
X81759200Y-54900700D01*
X81759200Y-54900700D02*
X78616100Y-58043800D01*
X97739300Y-54863900D02*
X95395000Y-52519600D01*
X97739300Y-54908500D02*
X97739300Y-54863900D01*
X95395000Y-52519600D02*
X89175000Y-52519600D01*
X57228500Y-98715900D02*
X57228500Y-89143600D01*
X59966600Y-86405500D02*
X63787400Y-86405500D01*
X96165200Y-60806300D02*
X97112900Y-59858600D01*
X94106700Y-60806400D02*
X96165200Y-60806400D01*
X96165200Y-60806400D02*
X96165200Y-60806300D01*
X97113000Y-59858600D02*
X97113000Y-59714900D01*
X97112900Y-59858600D02*
X97113000Y-59858600D01*
X97113000Y-59714900D02*
X99057500Y-57770400D01*
X84450300Y-70462800D02*
X94106700Y-60806400D01*
X99917900Y-57770400D02*
X101452600Y-56235700D01*
X99057500Y-57770400D02*
X99917900Y-57770400D01*
X79730100Y-70462800D02*
X84450300Y-70462800D01*
X57228500Y-89143600D02*
X59966600Y-86405500D01*
X63787400Y-86405500D02*
X79730100Y-70462800D01*
X64112500Y-105600000D02*
X57228500Y-98715900D01*
X117785900Y-60583800D02*
X121783100Y-60583800D01*
X102780900Y-59823800D02*
X102540600Y-59583500D01*
X103597300Y-57551200D02*
X110182100Y-57551200D01*
X111946500Y-55786800D02*
X112988900Y-55786800D01*
X121783100Y-60583800D02*
X121983200Y-60783900D01*
X112988900Y-55786800D02*
X117785900Y-60583800D01*
X102540600Y-59583500D02*
X102540600Y-58607900D01*
X121983200Y-60783900D02*
X133740100Y-60783900D01*
X102540600Y-58607900D02*
X103597300Y-57551200D01*
X133740100Y-60783900D02*
X139045000Y-66088800D01*
X110182100Y-57551200D02*
X111946500Y-55786800D01*
X125397400Y-85233200D02*
X103617400Y-63453200D01*
X103617400Y-63453200D02*
X103617400Y-59118800D01*
X127383000Y-85233200D02*
X125397400Y-85233200D01*
X130062000Y-85233200D02*
X127383000Y-85233200D01*
X103617400Y-59118800D02*
X103262400Y-58763800D01*
X100850800Y-55928000D02*
X100850800Y-56193600D01*
X78588000Y-65206000D02*
X78588000Y-67387000D01*
X92781100Y-57943900D02*
X86696500Y-64028500D01*
X99675700Y-57368700D02*
X98891200Y-57368700D01*
X98891200Y-57368700D02*
X98316000Y-57943900D01*
X100850800Y-56193600D02*
X99675700Y-57368700D01*
X105532100Y-56380400D02*
X105423900Y-56380400D01*
X86696500Y-64028500D02*
X79765500Y-64028500D01*
X98316000Y-57943900D02*
X92781100Y-57943900D01*
X104605300Y-55561800D02*
X101217000Y-55561800D01*
X79765500Y-64028500D02*
X78588000Y-65206000D01*
X101217000Y-55561800D02*
X100850800Y-55928000D01*
X105423900Y-56380400D02*
X104605300Y-55561800D01*
X112248100Y-56397300D02*
X111336200Y-57309200D01*
X133500000Y-80226600D02*
X125447000Y-72173400D01*
X144747000Y-80226600D02*
X133500000Y-80226600D01*
X111336200Y-58889800D02*
X124619800Y-72173400D01*
X111336200Y-57309200D02*
X111336200Y-58889800D01*
X124619800Y-72173400D02*
X125447000Y-72173400D01*
X115700000Y-129100000D02*
X118500000Y-126300000D01*
X115799000Y-117050000D02*
X107648000Y-117050000D01*
X97820200Y-126878000D02*
X82532400Y-126878000D01*
X82532400Y-126878000D02*
X77914900Y-122260000D01*
X138510000Y-124730000D02*
X139780000Y-126000000D01*
X119950000Y-117050000D02*
X123906000Y-113093000D01*
X107648000Y-117050000D02*
X97820200Y-126878000D01*
X123906000Y-113093000D02*
X127428000Y-113093000D01*
X135452000Y-113613000D02*
X137055000Y-115216000D01*
X115799000Y-117050000D02*
X119950000Y-117050000D01*
X127428000Y-113093000D02*
X128000000Y-113666000D01*
X133232000Y-113613000D02*
X135452000Y-113613000D01*
X138510000Y-116671000D02*
X138510000Y-124730000D01*
X133179000Y-113666000D02*
X133232000Y-113613000D01*
X137055000Y-115216000D02*
X138510000Y-116671000D01*
X128000000Y-113666000D02*
X133179000Y-113666000D01*
X108850000Y-126300000D02*
X111050000Y-128500000D01*
M02*
