G04 #@! TF.GenerationSoftware,KiCad,Pcbnew,10.0.6*
G04 #@! TF.CreationDate,2026-10-03T10:53:04+08:00*
G04 #@! TF.ProjectId,gdep133c02-driver,67646570-3133-4336-9330-322d64726976,0.3-HAND-SOLDER*
G04 #@! TF.SameCoordinates,Original*
G04 #@! TF.FileFunction,Legend,Bot*
G04 #@! TF.FilePolarity,Positive*
%FSLAX46Y46*%
G04 Gerber Fmt 4.6, Leading zero omitted, Abs format (unit mm)*
G04 Created by KiCad (PCBNEW 10.0.6) date 2026-10-03 10:53:04*
%MOMM*%
%LPD*%
G01*
G04 APERTURE LIST*
%ADD10C,0.150000*%
G04 APERTURE END LIST*
D10*
X84119047Y-122454819D02*
X84119047Y-121454819D01*
X84119047Y-121454819D02*
X83738095Y-121454819D01*
X83738095Y-121454819D02*
X83642857Y-121502438D01*
X83642857Y-121502438D02*
X83595238Y-121550057D01*
X83595238Y-121550057D02*
X83547619Y-121645295D01*
X83547619Y-121645295D02*
X83547619Y-121788152D01*
X83547619Y-121788152D02*
X83595238Y-121883390D01*
X83595238Y-121883390D02*
X83642857Y-121931009D01*
X83642857Y-121931009D02*
X83738095Y-121978628D01*
X83738095Y-121978628D02*
X84119047Y-121978628D01*
X82928571Y-121454819D02*
X82738095Y-121454819D01*
X82738095Y-121454819D02*
X82642857Y-121502438D01*
X82642857Y-121502438D02*
X82547619Y-121597676D01*
X82547619Y-121597676D02*
X82500000Y-121788152D01*
X82500000Y-121788152D02*
X82500000Y-122121485D01*
X82500000Y-122121485D02*
X82547619Y-122311961D01*
X82547619Y-122311961D02*
X82642857Y-122407200D01*
X82642857Y-122407200D02*
X82738095Y-122454819D01*
X82738095Y-122454819D02*
X82928571Y-122454819D01*
X82928571Y-122454819D02*
X83023809Y-122407200D01*
X83023809Y-122407200D02*
X83119047Y-122311961D01*
X83119047Y-122311961D02*
X83166666Y-122121485D01*
X83166666Y-122121485D02*
X83166666Y-121788152D01*
X83166666Y-121788152D02*
X83119047Y-121597676D01*
X83119047Y-121597676D02*
X83023809Y-121502438D01*
X83023809Y-121502438D02*
X82928571Y-121454819D01*
X82166666Y-121454819D02*
X81928571Y-122454819D01*
X81928571Y-122454819D02*
X81738095Y-121740533D01*
X81738095Y-121740533D02*
X81547619Y-122454819D01*
X81547619Y-122454819D02*
X81309524Y-121454819D01*
X80928571Y-121931009D02*
X80595238Y-121931009D01*
X80452381Y-122454819D02*
X80928571Y-122454819D01*
X80928571Y-122454819D02*
X80928571Y-121454819D01*
X80928571Y-121454819D02*
X80452381Y-121454819D01*
X79452381Y-122454819D02*
X79785714Y-121978628D01*
X80023809Y-122454819D02*
X80023809Y-121454819D01*
X80023809Y-121454819D02*
X79642857Y-121454819D01*
X79642857Y-121454819D02*
X79547619Y-121502438D01*
X79547619Y-121502438D02*
X79500000Y-121550057D01*
X79500000Y-121550057D02*
X79452381Y-121645295D01*
X79452381Y-121645295D02*
X79452381Y-121788152D01*
X79452381Y-121788152D02*
X79500000Y-121883390D01*
X79500000Y-121883390D02*
X79547619Y-121931009D01*
X79547619Y-121931009D02*
X79642857Y-121978628D01*
X79642857Y-121978628D02*
X80023809Y-121978628D01*
X78071428Y-121454819D02*
X77880952Y-121454819D01*
X77880952Y-121454819D02*
X77785714Y-121502438D01*
X77785714Y-121502438D02*
X77690476Y-121597676D01*
X77690476Y-121597676D02*
X77642857Y-121788152D01*
X77642857Y-121788152D02*
X77642857Y-122121485D01*
X77642857Y-122121485D02*
X77690476Y-122311961D01*
X77690476Y-122311961D02*
X77785714Y-122407200D01*
X77785714Y-122407200D02*
X77880952Y-122454819D01*
X77880952Y-122454819D02*
X78071428Y-122454819D01*
X78071428Y-122454819D02*
X78166666Y-122407200D01*
X78166666Y-122407200D02*
X78261904Y-122311961D01*
X78261904Y-122311961D02*
X78309523Y-122121485D01*
X78309523Y-122121485D02*
X78309523Y-121788152D01*
X78309523Y-121788152D02*
X78261904Y-121597676D01*
X78261904Y-121597676D02*
X78166666Y-121502438D01*
X78166666Y-121502438D02*
X78071428Y-121454819D01*
X76880952Y-121931009D02*
X77214285Y-121931009D01*
X77214285Y-122454819D02*
X77214285Y-121454819D01*
X77214285Y-121454819D02*
X76738095Y-121454819D01*
X76023809Y-121931009D02*
X76357142Y-121931009D01*
X76357142Y-122454819D02*
X76357142Y-121454819D01*
X76357142Y-121454819D02*
X75880952Y-121454819D01*
X74404761Y-121931009D02*
X74261904Y-121978628D01*
X74261904Y-121978628D02*
X74214285Y-122026247D01*
X74214285Y-122026247D02*
X74166666Y-122121485D01*
X74166666Y-122121485D02*
X74166666Y-122264342D01*
X74166666Y-122264342D02*
X74214285Y-122359580D01*
X74214285Y-122359580D02*
X74261904Y-122407200D01*
X74261904Y-122407200D02*
X74357142Y-122454819D01*
X74357142Y-122454819D02*
X74738094Y-122454819D01*
X74738094Y-122454819D02*
X74738094Y-121454819D01*
X74738094Y-121454819D02*
X74404761Y-121454819D01*
X74404761Y-121454819D02*
X74309523Y-121502438D01*
X74309523Y-121502438D02*
X74261904Y-121550057D01*
X74261904Y-121550057D02*
X74214285Y-121645295D01*
X74214285Y-121645295D02*
X74214285Y-121740533D01*
X74214285Y-121740533D02*
X74261904Y-121835771D01*
X74261904Y-121835771D02*
X74309523Y-121883390D01*
X74309523Y-121883390D02*
X74404761Y-121931009D01*
X74404761Y-121931009D02*
X74738094Y-121931009D01*
X73738094Y-121931009D02*
X73404761Y-121931009D01*
X73261904Y-122454819D02*
X73738094Y-122454819D01*
X73738094Y-122454819D02*
X73738094Y-121454819D01*
X73738094Y-121454819D02*
X73261904Y-121454819D01*
X72499999Y-121931009D02*
X72833332Y-121931009D01*
X72833332Y-122454819D02*
X72833332Y-121454819D01*
X72833332Y-121454819D02*
X72357142Y-121454819D01*
X71785713Y-121454819D02*
X71595237Y-121454819D01*
X71595237Y-121454819D02*
X71499999Y-121502438D01*
X71499999Y-121502438D02*
X71404761Y-121597676D01*
X71404761Y-121597676D02*
X71357142Y-121788152D01*
X71357142Y-121788152D02*
X71357142Y-122121485D01*
X71357142Y-122121485D02*
X71404761Y-122311961D01*
X71404761Y-122311961D02*
X71499999Y-122407200D01*
X71499999Y-122407200D02*
X71595237Y-122454819D01*
X71595237Y-122454819D02*
X71785713Y-122454819D01*
X71785713Y-122454819D02*
X71880951Y-122407200D01*
X71880951Y-122407200D02*
X71976189Y-122311961D01*
X71976189Y-122311961D02*
X72023808Y-122121485D01*
X72023808Y-122121485D02*
X72023808Y-121788152D01*
X72023808Y-121788152D02*
X71976189Y-121597676D01*
X71976189Y-121597676D02*
X71880951Y-121502438D01*
X71880951Y-121502438D02*
X71785713Y-121454819D01*
X70357142Y-122454819D02*
X70690475Y-121978628D01*
X70928570Y-122454819D02*
X70928570Y-121454819D01*
X70928570Y-121454819D02*
X70547618Y-121454819D01*
X70547618Y-121454819D02*
X70452380Y-121502438D01*
X70452380Y-121502438D02*
X70404761Y-121550057D01*
X70404761Y-121550057D02*
X70357142Y-121645295D01*
X70357142Y-121645295D02*
X70357142Y-121788152D01*
X70357142Y-121788152D02*
X70404761Y-121883390D01*
X70404761Y-121883390D02*
X70452380Y-121931009D01*
X70452380Y-121931009D02*
X70547618Y-121978628D01*
X70547618Y-121978628D02*
X70928570Y-121978628D01*
X69928570Y-121931009D02*
X69595237Y-121931009D01*
X69452380Y-122454819D02*
X69928570Y-122454819D01*
X69928570Y-122454819D02*
X69928570Y-121454819D01*
X69928570Y-121454819D02*
X69452380Y-121454819D01*
X67928570Y-121931009D02*
X68261903Y-121931009D01*
X68261903Y-122454819D02*
X68261903Y-121454819D01*
X68261903Y-121454819D02*
X67785713Y-121454819D01*
X67404760Y-122454819D02*
X67404760Y-121454819D01*
X67404760Y-121454819D02*
X67023808Y-121454819D01*
X67023808Y-121454819D02*
X66928570Y-121502438D01*
X66928570Y-121502438D02*
X66880951Y-121550057D01*
X66880951Y-121550057D02*
X66833332Y-121645295D01*
X66833332Y-121645295D02*
X66833332Y-121788152D01*
X66833332Y-121788152D02*
X66880951Y-121883390D01*
X66880951Y-121883390D02*
X66928570Y-121931009D01*
X66928570Y-121931009D02*
X67023808Y-121978628D01*
X67023808Y-121978628D02*
X67404760Y-121978628D01*
X65833332Y-122359580D02*
X65880951Y-122407200D01*
X65880951Y-122407200D02*
X66023808Y-122454819D01*
X66023808Y-122454819D02*
X66119046Y-122454819D01*
X66119046Y-122454819D02*
X66261903Y-122407200D01*
X66261903Y-122407200D02*
X66357141Y-122311961D01*
X66357141Y-122311961D02*
X66404760Y-122216723D01*
X66404760Y-122216723D02*
X66452379Y-122026247D01*
X66452379Y-122026247D02*
X66452379Y-121883390D01*
X66452379Y-121883390D02*
X66404760Y-121692914D01*
X66404760Y-121692914D02*
X66357141Y-121597676D01*
X66357141Y-121597676D02*
X66261903Y-121502438D01*
X66261903Y-121502438D02*
X66119046Y-121454819D01*
X66119046Y-121454819D02*
X66023808Y-121454819D01*
X66023808Y-121454819D02*
X65880951Y-121502438D01*
X65880951Y-121502438D02*
X65833332Y-121550057D01*
X82452380Y-125454819D02*
X81833333Y-125454819D01*
X81833333Y-125454819D02*
X82166666Y-125835771D01*
X82166666Y-125835771D02*
X82023809Y-125835771D01*
X82023809Y-125835771D02*
X81928571Y-125883390D01*
X81928571Y-125883390D02*
X81880952Y-125931009D01*
X81880952Y-125931009D02*
X81833333Y-126026247D01*
X81833333Y-126026247D02*
X81833333Y-126264342D01*
X81833333Y-126264342D02*
X81880952Y-126359580D01*
X81880952Y-126359580D02*
X81928571Y-126407200D01*
X81928571Y-126407200D02*
X82023809Y-126454819D01*
X82023809Y-126454819D02*
X82309523Y-126454819D01*
X82309523Y-126454819D02*
X82404761Y-126407200D01*
X82404761Y-126407200D02*
X82452380Y-126359580D01*
X81404761Y-126359580D02*
X81357142Y-126407200D01*
X81357142Y-126407200D02*
X81404761Y-126454819D01*
X81404761Y-126454819D02*
X81452380Y-126407200D01*
X81452380Y-126407200D02*
X81404761Y-126359580D01*
X81404761Y-126359580D02*
X81404761Y-126454819D01*
X81023809Y-125454819D02*
X80404762Y-125454819D01*
X80404762Y-125454819D02*
X80738095Y-125835771D01*
X80738095Y-125835771D02*
X80595238Y-125835771D01*
X80595238Y-125835771D02*
X80500000Y-125883390D01*
X80500000Y-125883390D02*
X80452381Y-125931009D01*
X80452381Y-125931009D02*
X80404762Y-126026247D01*
X80404762Y-126026247D02*
X80404762Y-126264342D01*
X80404762Y-126264342D02*
X80452381Y-126359580D01*
X80452381Y-126359580D02*
X80500000Y-126407200D01*
X80500000Y-126407200D02*
X80595238Y-126454819D01*
X80595238Y-126454819D02*
X80880952Y-126454819D01*
X80880952Y-126454819D02*
X80976190Y-126407200D01*
X80976190Y-126407200D02*
X81023809Y-126359580D01*
X80119047Y-125454819D02*
X79785714Y-126454819D01*
X79785714Y-126454819D02*
X79452381Y-125454819D01*
X78166666Y-125454819D02*
X77976190Y-125454819D01*
X77976190Y-125454819D02*
X77880952Y-125502438D01*
X77880952Y-125502438D02*
X77785714Y-125597676D01*
X77785714Y-125597676D02*
X77738095Y-125788152D01*
X77738095Y-125788152D02*
X77738095Y-126121485D01*
X77738095Y-126121485D02*
X77785714Y-126311961D01*
X77785714Y-126311961D02*
X77880952Y-126407200D01*
X77880952Y-126407200D02*
X77976190Y-126454819D01*
X77976190Y-126454819D02*
X78166666Y-126454819D01*
X78166666Y-126454819D02*
X78261904Y-126407200D01*
X78261904Y-126407200D02*
X78357142Y-126311961D01*
X78357142Y-126311961D02*
X78404761Y-126121485D01*
X78404761Y-126121485D02*
X78404761Y-125788152D01*
X78404761Y-125788152D02*
X78357142Y-125597676D01*
X78357142Y-125597676D02*
X78261904Y-125502438D01*
X78261904Y-125502438D02*
X78166666Y-125454819D01*
X77309523Y-126454819D02*
X77309523Y-125454819D01*
X77309523Y-125454819D02*
X76738095Y-126454819D01*
X76738095Y-126454819D02*
X76738095Y-125454819D01*
X75785714Y-126454819D02*
X76261904Y-126454819D01*
X76261904Y-126454819D02*
X76261904Y-125454819D01*
X75261904Y-125978628D02*
X75261904Y-126454819D01*
X75595237Y-125454819D02*
X75261904Y-125978628D01*
X75261904Y-125978628D02*
X74928571Y-125454819D01*
X73833332Y-126073866D02*
X73071428Y-126073866D01*
X71833332Y-126454819D02*
X71833332Y-125454819D01*
X71833332Y-125454819D02*
X71261904Y-126454819D01*
X71261904Y-126454819D02*
X71261904Y-125454819D01*
X70595237Y-125454819D02*
X70404761Y-125454819D01*
X70404761Y-125454819D02*
X70309523Y-125502438D01*
X70309523Y-125502438D02*
X70214285Y-125597676D01*
X70214285Y-125597676D02*
X70166666Y-125788152D01*
X70166666Y-125788152D02*
X70166666Y-126121485D01*
X70166666Y-126121485D02*
X70214285Y-126311961D01*
X70214285Y-126311961D02*
X70309523Y-126407200D01*
X70309523Y-126407200D02*
X70404761Y-126454819D01*
X70404761Y-126454819D02*
X70595237Y-126454819D01*
X70595237Y-126454819D02*
X70690475Y-126407200D01*
X70690475Y-126407200D02*
X70785713Y-126311961D01*
X70785713Y-126311961D02*
X70833332Y-126121485D01*
X70833332Y-126121485D02*
X70833332Y-125788152D01*
X70833332Y-125788152D02*
X70785713Y-125597676D01*
X70785713Y-125597676D02*
X70690475Y-125502438D01*
X70690475Y-125502438D02*
X70595237Y-125454819D01*
X68499999Y-125454819D02*
X68976189Y-125454819D01*
X68976189Y-125454819D02*
X69023808Y-125931009D01*
X69023808Y-125931009D02*
X68976189Y-125883390D01*
X68976189Y-125883390D02*
X68880951Y-125835771D01*
X68880951Y-125835771D02*
X68642856Y-125835771D01*
X68642856Y-125835771D02*
X68547618Y-125883390D01*
X68547618Y-125883390D02*
X68499999Y-125931009D01*
X68499999Y-125931009D02*
X68452380Y-126026247D01*
X68452380Y-126026247D02*
X68452380Y-126264342D01*
X68452380Y-126264342D02*
X68499999Y-126359580D01*
X68499999Y-126359580D02*
X68547618Y-126407200D01*
X68547618Y-126407200D02*
X68642856Y-126454819D01*
X68642856Y-126454819D02*
X68880951Y-126454819D01*
X68880951Y-126454819D02*
X68976189Y-126407200D01*
X68976189Y-126407200D02*
X69023808Y-126359580D01*
X68166665Y-125454819D02*
X67833332Y-126454819D01*
X67833332Y-126454819D02*
X67499999Y-125454819D01*
X113619047Y-58931009D02*
X113952380Y-58931009D01*
X113952380Y-59454819D02*
X113952380Y-58454819D01*
X113952380Y-58454819D02*
X113476190Y-58454819D01*
X113095237Y-59454819D02*
X113095237Y-58454819D01*
X113095237Y-58454819D02*
X112714285Y-58454819D01*
X112714285Y-58454819D02*
X112619047Y-58502438D01*
X112619047Y-58502438D02*
X112571428Y-58550057D01*
X112571428Y-58550057D02*
X112523809Y-58645295D01*
X112523809Y-58645295D02*
X112523809Y-58788152D01*
X112523809Y-58788152D02*
X112571428Y-58883390D01*
X112571428Y-58883390D02*
X112619047Y-58931009D01*
X112619047Y-58931009D02*
X112714285Y-58978628D01*
X112714285Y-58978628D02*
X113095237Y-58978628D01*
X111523809Y-59359580D02*
X111571428Y-59407200D01*
X111571428Y-59407200D02*
X111714285Y-59454819D01*
X111714285Y-59454819D02*
X111809523Y-59454819D01*
X111809523Y-59454819D02*
X111952380Y-59407200D01*
X111952380Y-59407200D02*
X112047618Y-59311961D01*
X112047618Y-59311961D02*
X112095237Y-59216723D01*
X112095237Y-59216723D02*
X112142856Y-59026247D01*
X112142856Y-59026247D02*
X112142856Y-58883390D01*
X112142856Y-58883390D02*
X112095237Y-58692914D01*
X112095237Y-58692914D02*
X112047618Y-58597676D01*
X112047618Y-58597676D02*
X111952380Y-58502438D01*
X111952380Y-58502438D02*
X111809523Y-58454819D01*
X111809523Y-58454819D02*
X111714285Y-58454819D01*
X111714285Y-58454819D02*
X111571428Y-58502438D01*
X111571428Y-58502438D02*
X111523809Y-58550057D01*
X110333332Y-59454819D02*
X110333332Y-58454819D01*
X110333332Y-58454819D02*
X109952380Y-58454819D01*
X109952380Y-58454819D02*
X109857142Y-58502438D01*
X109857142Y-58502438D02*
X109809523Y-58550057D01*
X109809523Y-58550057D02*
X109761904Y-58645295D01*
X109761904Y-58645295D02*
X109761904Y-58788152D01*
X109761904Y-58788152D02*
X109809523Y-58883390D01*
X109809523Y-58883390D02*
X109857142Y-58931009D01*
X109857142Y-58931009D02*
X109952380Y-58978628D01*
X109952380Y-58978628D02*
X110333332Y-58978628D01*
X109333332Y-59454819D02*
X109333332Y-58454819D01*
X108857142Y-59454819D02*
X108857142Y-58454819D01*
X108857142Y-58454819D02*
X108285714Y-59454819D01*
X108285714Y-59454819D02*
X108285714Y-58454819D01*
X107285714Y-59454819D02*
X107857142Y-59454819D01*
X107571428Y-59454819D02*
X107571428Y-58454819D01*
X107571428Y-58454819D02*
X107666666Y-58597676D01*
X107666666Y-58597676D02*
X107761904Y-58692914D01*
X107761904Y-58692914D02*
X107857142Y-58740533D01*
X105380952Y-58407200D02*
X106238094Y-59692914D01*
X103714285Y-59359580D02*
X103761904Y-59407200D01*
X103761904Y-59407200D02*
X103904761Y-59454819D01*
X103904761Y-59454819D02*
X103999999Y-59454819D01*
X103999999Y-59454819D02*
X104142856Y-59407200D01*
X104142856Y-59407200D02*
X104238094Y-59311961D01*
X104238094Y-59311961D02*
X104285713Y-59216723D01*
X104285713Y-59216723D02*
X104333332Y-59026247D01*
X104333332Y-59026247D02*
X104333332Y-58883390D01*
X104333332Y-58883390D02*
X104285713Y-58692914D01*
X104285713Y-58692914D02*
X104238094Y-58597676D01*
X104238094Y-58597676D02*
X104142856Y-58502438D01*
X104142856Y-58502438D02*
X103999999Y-58454819D01*
X103999999Y-58454819D02*
X103904761Y-58454819D01*
X103904761Y-58454819D02*
X103761904Y-58502438D01*
X103761904Y-58502438D02*
X103714285Y-58550057D01*
X103095237Y-58454819D02*
X102904761Y-58454819D01*
X102904761Y-58454819D02*
X102809523Y-58502438D01*
X102809523Y-58502438D02*
X102714285Y-58597676D01*
X102714285Y-58597676D02*
X102666666Y-58788152D01*
X102666666Y-58788152D02*
X102666666Y-59121485D01*
X102666666Y-59121485D02*
X102714285Y-59311961D01*
X102714285Y-59311961D02*
X102809523Y-59407200D01*
X102809523Y-59407200D02*
X102904761Y-59454819D01*
X102904761Y-59454819D02*
X103095237Y-59454819D01*
X103095237Y-59454819D02*
X103190475Y-59407200D01*
X103190475Y-59407200D02*
X103285713Y-59311961D01*
X103285713Y-59311961D02*
X103333332Y-59121485D01*
X103333332Y-59121485D02*
X103333332Y-58788152D01*
X103333332Y-58788152D02*
X103285713Y-58597676D01*
X103285713Y-58597676D02*
X103190475Y-58502438D01*
X103190475Y-58502438D02*
X103095237Y-58454819D01*
X102238094Y-59454819D02*
X102238094Y-58454819D01*
X102238094Y-58454819D02*
X101666666Y-59454819D01*
X101666666Y-59454819D02*
X101666666Y-58454819D01*
X101333332Y-58454819D02*
X100761904Y-58454819D01*
X101047618Y-59454819D02*
X101047618Y-58454819D01*
X100476189Y-59169104D02*
X99999999Y-59169104D01*
X100571427Y-59454819D02*
X100238094Y-58454819D01*
X100238094Y-58454819D02*
X99904761Y-59454819D01*
X98999999Y-59359580D02*
X99047618Y-59407200D01*
X99047618Y-59407200D02*
X99190475Y-59454819D01*
X99190475Y-59454819D02*
X99285713Y-59454819D01*
X99285713Y-59454819D02*
X99428570Y-59407200D01*
X99428570Y-59407200D02*
X99523808Y-59311961D01*
X99523808Y-59311961D02*
X99571427Y-59216723D01*
X99571427Y-59216723D02*
X99619046Y-59026247D01*
X99619046Y-59026247D02*
X99619046Y-58883390D01*
X99619046Y-58883390D02*
X99571427Y-58692914D01*
X99571427Y-58692914D02*
X99523808Y-58597676D01*
X99523808Y-58597676D02*
X99428570Y-58502438D01*
X99428570Y-58502438D02*
X99285713Y-58454819D01*
X99285713Y-58454819D02*
X99190475Y-58454819D01*
X99190475Y-58454819D02*
X99047618Y-58502438D01*
X99047618Y-58502438D02*
X98999999Y-58550057D01*
X98714284Y-58454819D02*
X98142856Y-58454819D01*
X98428570Y-59454819D02*
X98428570Y-58454819D01*
X97809522Y-59359580D02*
X97761903Y-59407200D01*
X97761903Y-59407200D02*
X97809522Y-59454819D01*
X97809522Y-59454819D02*
X97857141Y-59407200D01*
X97857141Y-59407200D02*
X97809522Y-59359580D01*
X97809522Y-59359580D02*
X97809522Y-59454819D01*
X97809522Y-58835771D02*
X97761903Y-58883390D01*
X97761903Y-58883390D02*
X97809522Y-58931009D01*
X97809522Y-58931009D02*
X97857141Y-58883390D01*
X97857141Y-58883390D02*
X97809522Y-58835771D01*
X97809522Y-58835771D02*
X97809522Y-58931009D01*
X96714284Y-58454819D02*
X96380951Y-59454819D01*
X96380951Y-59454819D02*
X96047618Y-58454819D01*
X95714284Y-58931009D02*
X95380951Y-58931009D01*
X95238094Y-59454819D02*
X95714284Y-59454819D01*
X95714284Y-59454819D02*
X95714284Y-58454819D01*
X95714284Y-58454819D02*
X95238094Y-58454819D01*
X94238094Y-59454819D02*
X94571427Y-58978628D01*
X94809522Y-59454819D02*
X94809522Y-58454819D01*
X94809522Y-58454819D02*
X94428570Y-58454819D01*
X94428570Y-58454819D02*
X94333332Y-58502438D01*
X94333332Y-58502438D02*
X94285713Y-58550057D01*
X94285713Y-58550057D02*
X94238094Y-58645295D01*
X94238094Y-58645295D02*
X94238094Y-58788152D01*
X94238094Y-58788152D02*
X94285713Y-58883390D01*
X94285713Y-58883390D02*
X94333332Y-58931009D01*
X94333332Y-58931009D02*
X94428570Y-58978628D01*
X94428570Y-58978628D02*
X94809522Y-58978628D01*
X93809522Y-59454819D02*
X93809522Y-58454819D01*
X92999999Y-58931009D02*
X93333332Y-58931009D01*
X93333332Y-59454819D02*
X93333332Y-58454819D01*
X93333332Y-58454819D02*
X92857142Y-58454819D01*
X92285713Y-58978628D02*
X92285713Y-59454819D01*
X92619046Y-58454819D02*
X92285713Y-58978628D01*
X92285713Y-58978628D02*
X91952380Y-58454819D01*
X90857141Y-59454819D02*
X90857141Y-58454819D01*
X90857141Y-58454819D02*
X90523808Y-59169104D01*
X90523808Y-59169104D02*
X90190475Y-58454819D01*
X90190475Y-58454819D02*
X90190475Y-59454819D01*
X89761903Y-59169104D02*
X89285713Y-59169104D01*
X89857141Y-59454819D02*
X89523808Y-58454819D01*
X89523808Y-58454819D02*
X89190475Y-59454819D01*
X88999998Y-58454819D02*
X88428570Y-58454819D01*
X88714284Y-59454819D02*
X88714284Y-58454819D01*
X88095236Y-59454819D02*
X88095236Y-58454819D01*
X87619046Y-59454819D02*
X87619046Y-58454819D01*
X87619046Y-58454819D02*
X87047618Y-59454819D01*
X87047618Y-59454819D02*
X87047618Y-58454819D01*
X86047618Y-58502438D02*
X86142856Y-58454819D01*
X86142856Y-58454819D02*
X86285713Y-58454819D01*
X86285713Y-58454819D02*
X86428570Y-58502438D01*
X86428570Y-58502438D02*
X86523808Y-58597676D01*
X86523808Y-58597676D02*
X86571427Y-58692914D01*
X86571427Y-58692914D02*
X86619046Y-58883390D01*
X86619046Y-58883390D02*
X86619046Y-59026247D01*
X86619046Y-59026247D02*
X86571427Y-59216723D01*
X86571427Y-59216723D02*
X86523808Y-59311961D01*
X86523808Y-59311961D02*
X86428570Y-59407200D01*
X86428570Y-59407200D02*
X86285713Y-59454819D01*
X86285713Y-59454819D02*
X86190475Y-59454819D01*
X86190475Y-59454819D02*
X86047618Y-59407200D01*
X86047618Y-59407200D02*
X85999999Y-59359580D01*
X85999999Y-59359580D02*
X85999999Y-59026247D01*
X85999999Y-59026247D02*
X86190475Y-59026247D01*
X113514285Y-52404485D02*
X113628571Y-52347342D01*
X113628571Y-52347342D02*
X113799999Y-52347342D01*
X113799999Y-52347342D02*
X113971428Y-52404485D01*
X113971428Y-52404485D02*
X114085713Y-52518771D01*
X114085713Y-52518771D02*
X114142856Y-52633057D01*
X114142856Y-52633057D02*
X114199999Y-52861628D01*
X114199999Y-52861628D02*
X114199999Y-53033057D01*
X114199999Y-53033057D02*
X114142856Y-53261628D01*
X114142856Y-53261628D02*
X114085713Y-53375914D01*
X114085713Y-53375914D02*
X113971428Y-53490200D01*
X113971428Y-53490200D02*
X113799999Y-53547342D01*
X113799999Y-53547342D02*
X113685713Y-53547342D01*
X113685713Y-53547342D02*
X113514285Y-53490200D01*
X113514285Y-53490200D02*
X113457142Y-53433057D01*
X113457142Y-53433057D02*
X113457142Y-53033057D01*
X113457142Y-53033057D02*
X113685713Y-53033057D01*
X112942856Y-53547342D02*
X112942856Y-52347342D01*
X112942856Y-52347342D02*
X112657142Y-52347342D01*
X112657142Y-52347342D02*
X112485713Y-52404485D01*
X112485713Y-52404485D02*
X112371428Y-52518771D01*
X112371428Y-52518771D02*
X112314285Y-52633057D01*
X112314285Y-52633057D02*
X112257142Y-52861628D01*
X112257142Y-52861628D02*
X112257142Y-53033057D01*
X112257142Y-53033057D02*
X112314285Y-53261628D01*
X112314285Y-53261628D02*
X112371428Y-53375914D01*
X112371428Y-53375914D02*
X112485713Y-53490200D01*
X112485713Y-53490200D02*
X112657142Y-53547342D01*
X112657142Y-53547342D02*
X112942856Y-53547342D01*
X111742856Y-52918771D02*
X111342856Y-52918771D01*
X111171428Y-53547342D02*
X111742856Y-53547342D01*
X111742856Y-53547342D02*
X111742856Y-52347342D01*
X111742856Y-52347342D02*
X111171428Y-52347342D01*
X110657142Y-53547342D02*
X110657142Y-52347342D01*
X110657142Y-52347342D02*
X110199999Y-52347342D01*
X110199999Y-52347342D02*
X110085714Y-52404485D01*
X110085714Y-52404485D02*
X110028571Y-52461628D01*
X110028571Y-52461628D02*
X109971428Y-52575914D01*
X109971428Y-52575914D02*
X109971428Y-52747342D01*
X109971428Y-52747342D02*
X110028571Y-52861628D01*
X110028571Y-52861628D02*
X110085714Y-52918771D01*
X110085714Y-52918771D02*
X110199999Y-52975914D01*
X110199999Y-52975914D02*
X110657142Y-52975914D01*
X108828571Y-53547342D02*
X109514285Y-53547342D01*
X109171428Y-53547342D02*
X109171428Y-52347342D01*
X109171428Y-52347342D02*
X109285714Y-52518771D01*
X109285714Y-52518771D02*
X109399999Y-52633057D01*
X109399999Y-52633057D02*
X109514285Y-52690200D01*
X108428571Y-52347342D02*
X107685714Y-52347342D01*
X107685714Y-52347342D02*
X108085714Y-52804485D01*
X108085714Y-52804485D02*
X107914285Y-52804485D01*
X107914285Y-52804485D02*
X107800000Y-52861628D01*
X107800000Y-52861628D02*
X107742857Y-52918771D01*
X107742857Y-52918771D02*
X107685714Y-53033057D01*
X107685714Y-53033057D02*
X107685714Y-53318771D01*
X107685714Y-53318771D02*
X107742857Y-53433057D01*
X107742857Y-53433057D02*
X107800000Y-53490200D01*
X107800000Y-53490200D02*
X107914285Y-53547342D01*
X107914285Y-53547342D02*
X108257142Y-53547342D01*
X108257142Y-53547342D02*
X108371428Y-53490200D01*
X108371428Y-53490200D02*
X108428571Y-53433057D01*
X107285714Y-52347342D02*
X106542857Y-52347342D01*
X106542857Y-52347342D02*
X106942857Y-52804485D01*
X106942857Y-52804485D02*
X106771428Y-52804485D01*
X106771428Y-52804485D02*
X106657143Y-52861628D01*
X106657143Y-52861628D02*
X106600000Y-52918771D01*
X106600000Y-52918771D02*
X106542857Y-53033057D01*
X106542857Y-53033057D02*
X106542857Y-53318771D01*
X106542857Y-53318771D02*
X106600000Y-53433057D01*
X106600000Y-53433057D02*
X106657143Y-53490200D01*
X106657143Y-53490200D02*
X106771428Y-53547342D01*
X106771428Y-53547342D02*
X107114285Y-53547342D01*
X107114285Y-53547342D02*
X107228571Y-53490200D01*
X107228571Y-53490200D02*
X107285714Y-53433057D01*
X105342857Y-53433057D02*
X105400000Y-53490200D01*
X105400000Y-53490200D02*
X105571428Y-53547342D01*
X105571428Y-53547342D02*
X105685714Y-53547342D01*
X105685714Y-53547342D02*
X105857143Y-53490200D01*
X105857143Y-53490200D02*
X105971428Y-53375914D01*
X105971428Y-53375914D02*
X106028571Y-53261628D01*
X106028571Y-53261628D02*
X106085714Y-53033057D01*
X106085714Y-53033057D02*
X106085714Y-52861628D01*
X106085714Y-52861628D02*
X106028571Y-52633057D01*
X106028571Y-52633057D02*
X105971428Y-52518771D01*
X105971428Y-52518771D02*
X105857143Y-52404485D01*
X105857143Y-52404485D02*
X105685714Y-52347342D01*
X105685714Y-52347342D02*
X105571428Y-52347342D01*
X105571428Y-52347342D02*
X105400000Y-52404485D01*
X105400000Y-52404485D02*
X105342857Y-52461628D01*
X104600000Y-52347342D02*
X104485714Y-52347342D01*
X104485714Y-52347342D02*
X104371428Y-52404485D01*
X104371428Y-52404485D02*
X104314286Y-52461628D01*
X104314286Y-52461628D02*
X104257143Y-52575914D01*
X104257143Y-52575914D02*
X104200000Y-52804485D01*
X104200000Y-52804485D02*
X104200000Y-53090200D01*
X104200000Y-53090200D02*
X104257143Y-53318771D01*
X104257143Y-53318771D02*
X104314286Y-53433057D01*
X104314286Y-53433057D02*
X104371428Y-53490200D01*
X104371428Y-53490200D02*
X104485714Y-53547342D01*
X104485714Y-53547342D02*
X104600000Y-53547342D01*
X104600000Y-53547342D02*
X104714286Y-53490200D01*
X104714286Y-53490200D02*
X104771428Y-53433057D01*
X104771428Y-53433057D02*
X104828571Y-53318771D01*
X104828571Y-53318771D02*
X104885714Y-53090200D01*
X104885714Y-53090200D02*
X104885714Y-52804485D01*
X104885714Y-52804485D02*
X104828571Y-52575914D01*
X104828571Y-52575914D02*
X104771428Y-52461628D01*
X104771428Y-52461628D02*
X104714286Y-52404485D01*
X104714286Y-52404485D02*
X104600000Y-52347342D01*
X103742857Y-52461628D02*
X103685714Y-52404485D01*
X103685714Y-52404485D02*
X103571429Y-52347342D01*
X103571429Y-52347342D02*
X103285714Y-52347342D01*
X103285714Y-52347342D02*
X103171429Y-52404485D01*
X103171429Y-52404485D02*
X103114286Y-52461628D01*
X103114286Y-52461628D02*
X103057143Y-52575914D01*
X103057143Y-52575914D02*
X103057143Y-52690200D01*
X103057143Y-52690200D02*
X103114286Y-52861628D01*
X103114286Y-52861628D02*
X103800000Y-53547342D01*
X103800000Y-53547342D02*
X103057143Y-53547342D01*
X101628571Y-53547342D02*
X101628571Y-52347342D01*
X101628571Y-52347342D02*
X101342857Y-52347342D01*
X101342857Y-52347342D02*
X101171428Y-52404485D01*
X101171428Y-52404485D02*
X101057143Y-52518771D01*
X101057143Y-52518771D02*
X101000000Y-52633057D01*
X101000000Y-52633057D02*
X100942857Y-52861628D01*
X100942857Y-52861628D02*
X100942857Y-53033057D01*
X100942857Y-53033057D02*
X101000000Y-53261628D01*
X101000000Y-53261628D02*
X101057143Y-53375914D01*
X101057143Y-53375914D02*
X101171428Y-53490200D01*
X101171428Y-53490200D02*
X101342857Y-53547342D01*
X101342857Y-53547342D02*
X101628571Y-53547342D01*
X99742857Y-53547342D02*
X100142857Y-52975914D01*
X100428571Y-53547342D02*
X100428571Y-52347342D01*
X100428571Y-52347342D02*
X99971428Y-52347342D01*
X99971428Y-52347342D02*
X99857143Y-52404485D01*
X99857143Y-52404485D02*
X99800000Y-52461628D01*
X99800000Y-52461628D02*
X99742857Y-52575914D01*
X99742857Y-52575914D02*
X99742857Y-52747342D01*
X99742857Y-52747342D02*
X99800000Y-52861628D01*
X99800000Y-52861628D02*
X99857143Y-52918771D01*
X99857143Y-52918771D02*
X99971428Y-52975914D01*
X99971428Y-52975914D02*
X100428571Y-52975914D01*
X99228571Y-53547342D02*
X99228571Y-52347342D01*
X98828571Y-52347342D02*
X98428571Y-53547342D01*
X98428571Y-53547342D02*
X98028571Y-52347342D01*
X97628571Y-52918771D02*
X97228571Y-52918771D01*
X97057143Y-53547342D02*
X97628571Y-53547342D01*
X97628571Y-53547342D02*
X97628571Y-52347342D01*
X97628571Y-52347342D02*
X97057143Y-52347342D01*
X95857143Y-53547342D02*
X96257143Y-52975914D01*
X96542857Y-53547342D02*
X96542857Y-52347342D01*
X96542857Y-52347342D02*
X96085714Y-52347342D01*
X96085714Y-52347342D02*
X95971429Y-52404485D01*
X95971429Y-52404485D02*
X95914286Y-52461628D01*
X95914286Y-52461628D02*
X95857143Y-52575914D01*
X95857143Y-52575914D02*
X95857143Y-52747342D01*
X95857143Y-52747342D02*
X95914286Y-52861628D01*
X95914286Y-52861628D02*
X95971429Y-52918771D01*
X95971429Y-52918771D02*
X96085714Y-52975914D01*
X96085714Y-52975914D02*
X96542857Y-52975914D01*
X94200000Y-52347342D02*
X94085714Y-52347342D01*
X94085714Y-52347342D02*
X93971428Y-52404485D01*
X93971428Y-52404485D02*
X93914286Y-52461628D01*
X93914286Y-52461628D02*
X93857143Y-52575914D01*
X93857143Y-52575914D02*
X93800000Y-52804485D01*
X93800000Y-52804485D02*
X93800000Y-53090200D01*
X93800000Y-53090200D02*
X93857143Y-53318771D01*
X93857143Y-53318771D02*
X93914286Y-53433057D01*
X93914286Y-53433057D02*
X93971428Y-53490200D01*
X93971428Y-53490200D02*
X94085714Y-53547342D01*
X94085714Y-53547342D02*
X94200000Y-53547342D01*
X94200000Y-53547342D02*
X94314286Y-53490200D01*
X94314286Y-53490200D02*
X94371428Y-53433057D01*
X94371428Y-53433057D02*
X94428571Y-53318771D01*
X94428571Y-53318771D02*
X94485714Y-53090200D01*
X94485714Y-53090200D02*
X94485714Y-52804485D01*
X94485714Y-52804485D02*
X94428571Y-52575914D01*
X94428571Y-52575914D02*
X94371428Y-52461628D01*
X94371428Y-52461628D02*
X94314286Y-52404485D01*
X94314286Y-52404485D02*
X94200000Y-52347342D01*
X93285714Y-53433057D02*
X93228571Y-53490200D01*
X93228571Y-53490200D02*
X93285714Y-53547342D01*
X93285714Y-53547342D02*
X93342857Y-53490200D01*
X93342857Y-53490200D02*
X93285714Y-53433057D01*
X93285714Y-53433057D02*
X93285714Y-53547342D01*
X92085714Y-53547342D02*
X92771428Y-53547342D01*
X92428571Y-53547342D02*
X92428571Y-52347342D01*
X92428571Y-52347342D02*
X92542857Y-52518771D01*
X92542857Y-52518771D02*
X92657142Y-52633057D01*
X92657142Y-52633057D02*
X92771428Y-52690200D01*
X90657142Y-53547342D02*
X90657142Y-52347342D01*
X90657142Y-52347342D02*
X90371428Y-52347342D01*
X90371428Y-52347342D02*
X90199999Y-52404485D01*
X90199999Y-52404485D02*
X90085714Y-52518771D01*
X90085714Y-52518771D02*
X90028571Y-52633057D01*
X90028571Y-52633057D02*
X89971428Y-52861628D01*
X89971428Y-52861628D02*
X89971428Y-53033057D01*
X89971428Y-53033057D02*
X90028571Y-53261628D01*
X90028571Y-53261628D02*
X90085714Y-53375914D01*
X90085714Y-53375914D02*
X90199999Y-53490200D01*
X90199999Y-53490200D02*
X90371428Y-53547342D01*
X90371428Y-53547342D02*
X90657142Y-53547342D01*
X88771428Y-53547342D02*
X89171428Y-52975914D01*
X89457142Y-53547342D02*
X89457142Y-52347342D01*
X89457142Y-52347342D02*
X88999999Y-52347342D01*
X88999999Y-52347342D02*
X88885714Y-52404485D01*
X88885714Y-52404485D02*
X88828571Y-52461628D01*
X88828571Y-52461628D02*
X88771428Y-52575914D01*
X88771428Y-52575914D02*
X88771428Y-52747342D01*
X88771428Y-52747342D02*
X88828571Y-52861628D01*
X88828571Y-52861628D02*
X88885714Y-52918771D01*
X88885714Y-52918771D02*
X88999999Y-52975914D01*
X88999999Y-52975914D02*
X89457142Y-52975914D01*
X88314285Y-53204485D02*
X87742857Y-53204485D01*
X88428571Y-53547342D02*
X88028571Y-52347342D01*
X88028571Y-52347342D02*
X87628571Y-53547342D01*
X86828571Y-52918771D02*
X87228571Y-52918771D01*
X87228571Y-53547342D02*
X87228571Y-52347342D01*
X87228571Y-52347342D02*
X86657143Y-52347342D01*
X86371429Y-52347342D02*
X85685715Y-52347342D01*
X86028572Y-53547342D02*
X86028572Y-52347342D01*
M02*
